HIERARCHY
ROOT Hips
{
 OFFSET 0.000000 0.000000 0.000000
 CHANNELS 6 Xposition Yposition Zposition Yrotation Xrotation Zrotation
 JOINT Chest
 {
  OFFSET 0.000000 9.585900 0.002600
  CHANNELS 3 Yrotation Xrotation Zrotation
  JOINT Chest2
  {
   OFFSET 0.000000 9.601200 -0.005300
   CHANNELS 3 Yrotation Xrotation Zrotation
   JOINT Chest3
   {
    OFFSET 0.000000 9.561800 0.000000
    CHANNELS 3 Yrotation Xrotation Zrotation
    JOINT Chest4
    {
     OFFSET 0.000000 9.552100 0.000000
     CHANNELS 3 Yrotation Xrotation Zrotation
     JOINT Neck
     {
      OFFSET 0.000000 14.453000 0.000000
      CHANNELS 3 Yrotation Xrotation Zrotation
      JOINT Head
      {
       OFFSET 0.000000 8.936500 -0.011300
       CHANNELS 3 Yrotation Xrotation Zrotation
       End Site
       {
        OFFSET 0.000000 17.073600 -0.006000
       }
      }
     }
     JOINT RightCollar
     {
      OFFSET -2.921100 9.558500 0.000000
      CHANNELS 3 Yrotation Xrotation Zrotation
      JOINT RightShoulder
      {
       OFFSET -13.519700 0.000000 0.000000
       CHANNELS 3 Yrotation Xrotation Zrotation
       JOINT RightElbow
       {
        OFFSET 0.000000 -29.696600 0.000000
        CHANNELS 3 Yrotation Xrotation Zrotation
        JOINT RightWrist
        {
         OFFSET 0.000000 -24.004700 0.000000
         CHANNELS 3 Yrotation Xrotation Zrotation
         End Site
         {
          OFFSET 0.000000 -17.728500 0.000000
         }
        }
       }
      }
     }
     JOINT LeftCollar
     {
      OFFSET 2.921100 9.558500 0.000000
      CHANNELS 3 Yrotation Xrotation Zrotation
      JOINT LeftShoulder
      {
       OFFSET 13.519700 0.000000 0.000000
       CHANNELS 3 Yrotation Xrotation Zrotation
       JOINT LeftElbow
       {
        OFFSET 0.000000 -29.696600 0.000000
        CHANNELS 3 Yrotation Xrotation Zrotation
        JOINT LeftWrist
        {
         OFFSET 0.000000 -24.004700 0.000000
         CHANNELS 3 Yrotation Xrotation Zrotation
         End Site
         {
          OFFSET 0.000000 -17.728500 0.000000
         }
        }
       }
      }
     }
    }
   }
  }
 }
 JOINT RightHip
 {
  OFFSET -7.771700 -0.012900 -0.001300
  CHANNELS 3 Yrotation Xrotation Zrotation
  JOINT RightKnee
  {
   OFFSET 0.000000 -40.869800 0.001200
   CHANNELS 3 Yrotation Xrotation Zrotation
   JOINT RightAnkle
   {
    OFFSET 0.000000 -39.717900 0.002100
    CHANNELS 3 Yrotation Xrotation Zrotation
    JOINT RightToe
    {
     OFFSET 0.000000 -4.965400 11.033500
     CHANNELS 3 Yrotation Xrotation Zrotation
     End Site
     {
      OFFSET 0.000000 -1.423100 5.872300
     }
    }
   }
  }
 }
 JOINT LeftHip
 {
  OFFSET 7.771700 -0.012900 -0.001300
  CHANNELS 3 Yrotation Xrotation Zrotation
  JOINT LeftKnee
  {
   OFFSET 0.000000 -40.869800 0.001200
   CHANNELS 3 Yrotation Xrotation Zrotation
   JOINT LeftAnkle
   {
    OFFSET 0.000000 -39.717900 0.002100
    CHANNELS 3 Yrotation Xrotation Zrotation
    JOINT LeftToe
    {
     OFFSET 0.000000 -4.965400 11.033500
     CHANNELS 3 Yrotation Xrotation Zrotation
     End Site
     {
      OFFSET 0.000000 -1.423100 5.872300
     }
    }
   }
  }
 }
}
MOTION
Frames: 15
Frame Time: 0.008333
0.000000 85.388000 0.000000 0.000000 -5.767877 0.000000 0.000000 11.653817 0.000000 0.000000 -5.885947 0.000000 0.000000 -0.000000 0.000000 0.000000 -0.000000 0.000000 0.000000 12.528835 0.000000 0.000000 0.711642 0.000000 0.000000 -0.000000 0.000000 0.000000 0.000000 -90.000000 0.000000 -2.309062 0.000000 0.000000 2.309062 0.000000 0.000000 -0.000000 0.000000 0.000000 -0.000000 90.000000 0.000000 -2.309062 0.000000 0.000000 2.309062 0.000000 0.000000 8.520406 0.000000 0.000000 1.905762 0.000000 -0.000000 -4.658285 0.000000 0.000000 -0.000000 0.000000 0.000000 8.520406 0.000000 0.000000 1.905762 0.000000 -0.000000 -4.658285 0.000000 0.000000 -0.000000 0.000000
-21.293976 57.982352 13.319694 176.218076 -49.145638 -3.251833 3.954316 22.076947 3.154286 2.026235 12.641519 1.613673 2.612535 15.789744 2.086532 2.039051 12.659377 1.580558 1.428891 18.613993 2.597993 1.768281 -1.294948 4.093751 4.239949 2.598666 1.613620 -2.654320 -22.284638 -5.425540 -15.913499 -53.670641 53.668398 19.915949 13.821573 -26.906157 -10.187212 0.612670 -1.289803 -7.346435 -19.296771 13.140573 -1.810714 -62.208390 -29.793542 -14.059126 15.706851 -3.592093 1.801248 -22.837636 -2.376755 -33.190628 73.536239 -37.358725 6.619289 -13.363563 10.995516 0.013328 -0.082294 -0.009435 -2.250904 -19.923683 7.968864 86.262157 84.390683 86.524103 -0.406528 -22.516633 -15.632117 0.029282 0.061189 0.002730
-21.294613 57.980770 13.319822 176.196264 -49.120789 -3.222540 3.957198 22.054681 3.142063 2.012903 12.642220 1.633844 2.616336 15.785177 2.063750 2.016830 12.619189 1.648216 1.405033 18.620798 2.461228 1.765798 -1.307856 3.911126 4.213285 2.641353 1.611761 -2.577920 -22.276261 -5.492279 -15.872702 -53.697734 53.632833 19.922652 13.817670 -26.892794 -10.158394 0.665662 -1.348141 -7.340325 -19.315334 13.116007 -1.807921 -62.197609 -29.792485 -14.052124 15.734603 -3.609138 1.812644 -22.868524 -2.393447 -33.186847 73.543110 -37.359574 6.624426 -13.366932 10.995750 -0.000629 -0.082993 -0.010793 -2.236274 -19.947109 7.946642 86.240634 84.373657 86.506492 -0.398194 -22.516561 -15.641446 0.024120 0.064090 0.002303
-21.294227 57.979404 13.319768 176.184074 -49.094015 -3.205895 3.945616 22.042874 3.149413 2.004490 12.631721 1.637542 2.609495 15.776369 2.064094 2.009372 12.609557 1.652894 1.374735 18.589309 2.311677 1.773992 -1.297274 3.755408 4.217148 2.663234 1.579691 -2.569429 -22.273481 -5.485971 -15.845162 -53.726309 53.624309 19.908499 13.831595 -26.901119 -10.144574 0.685317 -1.385889 -7.310102 -19.246585 13.136774 -1.756048 -62.247619 -29.840786 -14.069714 15.719068 -3.624893 1.815682 -22.900105 -2.403555 -33.185585 73.556003 -37.357225 6.624583 -13.376900 10.988769 0.009885 -0.082070 -0.008177 -2.227596 -19.974168 7.937354 86.248881 84.369615 86.519607 -0.394921 -22.518973 -15.649735 0.022849 0.065593 0.005452
-21.294617 57.978572 13.319064 176.163060 -49.069686 -3.178073 3.918268 22.041942 3.171470 2.008126 12.613514 1.614371 2.583434 15.756941 2.102141 2.016409 12.623454 1.592221 1.356555 18.576168 2.219134 1.777913 -1.302103 3.545630 4.193299 2.671643 1.603849 -2.544783 -22.271798 -5.491480 -15.884564 -53.721202 53.688975 19.956417 13.878383 -26.913609 -10.130160 0.721868 -1.368296 -7.290991 -19.219643 13.120870 -1.742935 -62.285046 -29.845229 -14.081739 15.699983 -3.635338 1.813400 -22.929548 -2.416265 -33.165115 73.566398 -37.348588 6.628171 -13.382576 10.985221 0.000142 -0.084302 -0.006663 -2.212724 -19.996787 7.920274 86.239239 84.365922 86.513633 -0.392850 -22.521112 -15.654565 0.021108 0.065968 0.005661
-21.296677 57.975542 13.320072 176.141937 -49.026601 -3.142311 3.905614 22.011582 3.164722 2.008277 12.603969 1.604156 2.570755 15.747963 2.122149 2.013473 12.624659 1.572022 1.337862 18.562529 2.101717 1.790100 -1.292280 3.335158 4.163105 2.679919 1.631784 -2.567502 -22.296615 -5.431495 -15.779532 -53.691397 53.641650 19.941690 13.899343 -26.885577 -10.119419 0.756931 -1.350612 -7.275059 -19.202858 13.102485 -1.767243 -62.319115 -29.813956 -14.081445 15.683418 -3.632063 1.823755 -22.975496 -2.439342 -33.155857 73.569772 -37.342198 6.618170 -13.386872 10.982580 0.017039 -0.078297 -0.004081 -2.197400 -20.041700 7.900815 86.247497 84.364528 86.520368 -0.397878 -22.521193 -15.653842 0.022893 0.065365 0.006814
-21.296678 57.975121 13.319133 176.134311 -49.002625 -3.130398 3.892478 21.999692 3.172964 2.008048 12.595160 1.594604 2.560216 15.738152 2.145018 2.004272 12.616061 1.573900 1.328438 18.576189 2.011974 1.800435 -1.281361 3.051458 4.098988 2.695749 1.687004 -2.473545 -22.300215 -5.514351 -15.840832 -53.642722 53.724491 19.958313 13.931660 -26.870798 -10.113957 0.799529 -1.354846 -7.254310 -19.214534 13.070014 -1.843658 -62.336671 -29.734810 -14.055607 15.660834 -3.628129 1.819876 -23.002132 -2.447124 -33.164227 73.574599 -37.352850 6.630486 -13.392249 10.976669 0.024838 -0.079127 -0.002579 -2.197827 -20.064147 7.894794 86.247989 84.362928 86.517737 -0.396549 -22.522832 -15.656851 0.021461 0.066622 0.006791
-21.297044 57.974849 13.318094 176.123218 -48.980366 -3.115995 3.880473 21.986115 3.179407 1.987520 12.589753 1.629319 2.557771 15.727272 2.120007 1.997384 12.613980 1.577684 1.312597 18.583036 1.851294 1.820324 -1.249992 2.814807 4.087233 2.713833 1.664586 -2.511529 -22.321840 -5.462687 -15.828682 -53.580425 53.761151 19.976976 13.963727 -26.859234 -10.117170 0.838420 -1.361045 -7.230311 -19.226560 13.038965 -2.108759 -62.358356 -29.471482 -13.977821 15.612157 -3.608367 1.817068 -23.027956 -2.454925 -33.186533 73.576356 -37.380780 6.658432 -13.399974 10.971936 0.021913 -0.079751 -0.001898 -2.202360 -20.082159 7.893282 86.220243 84.362874 86.475815 -0.389827 -22.524736 -15.656362 0.014967 0.070821 0.006505
-21.297408 57.974435 13.317258 176.110435 -48.958180 -3.102445 3.877262 21.967018 3.179881 1.984673 12.585588 1.632809 2.546868 15.712925 2.144341 1.981679 12.581448 1.636202 1.288716 18.630738 1.625462 1.844190 -1.203725 2.569283 4.078867 2.768801 1.589278 -2.536282 -22.337556 -5.427787 -15.853288 -53.511770 53.824511 20.038657 13.998343 -26.863221 -10.125034 0.916854 -1.382657 -7.215299 -19.201275 13.001588 -2.164234 -62.435175 -29.374898 -13.948382 15.595020 -3.585456 1.814910 -23.053509 -2.460262 -33.175299 73.580773 -37.377718 6.670965 -13.403211 10.972151 0.015703 -0.080577 -0.004173 -2.195752 -20.103891 7.890597 86.216975 84.362331 86.470081 -0.386915 -22.525500 -15.656191 0.019094 0.070920 0.006432
-21.297247 57.974269 13.316327 176.099174 -48.939573 -3.094419 3.874710 21.950115 3.184148 1.982069 12.581268 1.636512 2.537168 15.697795 2.172067 1.975167 12.573445 1.642817 1.276406 18.662853 1.473293 1.870565 -1.143703 2.294331 4.005699 2.772067 1.633595 -2.430873 -22.314944 -5.521938 -15.970961 -53.445538 53.949284 20.100796 14.036040 -26.867193 -10.135926 0.953051 -1.391998 -7.225601 -19.162814 12.998538 -2.255099 -62.492946 -29.239512 -13.901992 15.573559 -3.566577 1.813963 -23.073771 -2.460914 -33.144710 73.582623 -37.354149 6.686579 -13.402441 10.970030 -0.013662 -0.082290 -0.006009 -2.195893 -20.120688 7.896967 86.195917 84.370198 86.444164 -0.387326 -22.526194 -15.657037 0.026836 0.069806 0.008749
-21.298107 57.975717 13.313834 176.091817 -48.936273 -3.082904 3.861540 21.950350 3.194796 1.960172 12.564377 1.676603 2.534018 15.697837 2.144580 1.968270 12.566192 1.649490 1.264322 18.701993 1.318566 1.898101 -1.070344 2.014731 3.966161 2.783193 1.635910 -2.481346 -22.344417 -5.470186 -15.896088 -53.366261 53.958401 20.067026 14.068864 -26.838351 -10.153351 0.980879 -1.404604 -7.208673 -19.154678 12.969317 -2.422124 -62.521266 -29.052995 -13.850523 15.553472 -3.544025 1.818982 -23.077263 -2.466152 -33.150898 73.582577 -37.361005 6.670151 -13.398698 10.969383 -0.006986 -0.084472 -0.003234 -2.205603 -20.117231 7.897223 86.224399 84.382488 86.453555 -0.377524 -22.535564 -15.654103 0.027177 0.070589 0.009192
-21.299392 57.975626 13.312551 176.077965 -48.923926 -3.063716 3.851497 21.937108 3.206697 1.951518 12.561265 1.681142 2.525180 15.690547 2.153273 1.966178 12.569845 1.627155 1.257836 18.735201 1.194405 1.925911 -0.988769 1.732461 3.927536 2.775943 1.663407 -2.471307 -22.345229 -5.484295 -15.944505 -53.298920 54.044574 20.076640 14.093644 -26.817262 -10.162596 0.992226 -1.412242 -7.214202 -19.136209 12.967818 -2.592677 -62.551597 -28.860968 -13.799066 15.534092 -3.519946 1.826076 -23.093666 -2.472747 -33.154266 73.586731 -37.370442 6.670114 -13.396923 10.965836 -0.010352 -0.087596 0.000332 -2.200668 -20.126070 7.890040 86.203889 84.385643 86.426366 -0.375962 -22.538535 -15.655442 0.019524 0.071039 0.010729
-21.300033 57.973934 13.312641 176.054184 -48.901855 -3.039754 3.831484 21.919734 3.235022 1.953102 12.557013 1.664113 2.515492 15.686337 2.162352 1.955809 12.560360 1.648386 1.245054 18.769955 1.068108 1.948829 -0.883948 1.402400 3.890519 2.772356 1.654781 -2.487929 -22.353818 -5.482735 -15.927397 -53.230317 54.095126 20.104043 14.117570 -26.802849 -10.160439 1.000432 -1.469561 -7.296385 -19.067201 13.044065 -2.597239 -62.617547 -28.767807 -13.748781 15.516829 -3.498422 1.839624 -23.125018 -2.477409 -33.163604 73.595102 -37.382087 6.673222 -13.394942 10.958808 -0.003599 -0.090760 0.004168 -2.187916 -20.146066 7.885927 86.178880 84.391225 86.397568 -0.369107 -22.540625 -15.658485 0.018198 0.073133 0.013115
-21.299528 57.973397 13.311626 176.039952 -48.891907 -3.026803 3.822106 21.911265 3.247246 1.944770 12.556132 1.670916 2.505286 15.685205 2.170592 1.944778 12.556101 1.670914 1.225011 18.829558 0.869934 1.968726 -0.801280 1.140040 3.887610 2.776383 1.604976 -2.546913 -22.378183 -5.438622 -15.904544 -53.168241 54.137840 20.129918 14.135028 -26.789651 -10.167086 0.995700 -1.505798 -7.299483 -19.048200 13.051983 -2.727697 -62.645479 -28.610199 -13.697473 15.503304 -3.479331 1.845587 -23.144556 -2.475990 -33.175311 73.603160 -37.399385 6.676826 -13.388637 10.955302 0.010641 -0.098627 0.006869 -2.179201 -20.155149 7.884869 86.186038 84.398623 86.404002 -0.359439 -22.541780 -15.660818 0.017898 0.071504 0.013273
-21.300458 57.972965 13.309999 175.990259 -48.888228 -2.975017 3.830331 21.906639 3.244008 1.946951 12.557885 1.664234 2.494133 15.685176 2.183412 1.933662 12.554568 1.684813 1.200404 18.892575 0.689448 1.980963 -0.711911 0.883856 3.861487 2.752136 1.607771 -2.513120 -22.361782 -5.474128 -15.958140 -53.119917 54.214536 20.157050 14.149121 -26.781204 -10.165677 0.974926 -1.520854 -7.300784 -19.027594 13.058285 -2.862803 -62.661266 -28.460687 -13.647054 15.495761 -3.462519 1.882604 -23.151249 -2.488853 -33.171385 73.606608 -37.400070 6.677284 -13.358909 10.953986 0.014443 -0.129703 0.008954 -2.143264 -20.157234 7.873975 86.203448 84.407614 86.415024 -0.355221 -22.569392 -15.659380 0.028113 0.091745 0.014896
